SplineFontDB: 3.2
FontName: Quasar-Black
FullName: Quasar Black
FamilyName: Quasar
Weight: Black
Copyright: Copyright 2024 Brad Neil
UComments: "2023-12-15: Created with FontForge (http://fontforge.org)"
Version: 000.001
ItalicAngle: 0
UnderlinePosition: -100
UnderlineWidth: 50
Ascent: 800
Descent: 200
InvalidEm: 0
LayerCount: 2
Layer: 0 0 "Back" 1
Layer: 1 0 "Fore" 0
XUID: [1021 441 2049316168 16478]
StyleMap: 0x0000
FSType: 0
OS2Version: 0
OS2_WeightWidthSlopeOnly: 0
OS2_UseTypoMetrics: 1
CreationTime: 1702635369
ModificationTime: 1728712681
PfmFamily: 17
TTFWeight: 900
TTFWidth: 5
LineGap: 0
VLineGap: 0
OS2TypoAscent: 917
OS2TypoAOffset: 0
OS2TypoDescent: -417
OS2TypoDOffset: 0
OS2TypoLinegap: 0
OS2WinAscent: 840
OS2WinAOffset: 0
OS2WinDescent: 338
OS2WinDOffset: 0
HheadAscent: 917
HheadAOffset: 0
HheadDescent: -417
HheadDOffset: 0
OS2CapHeight: 828
OS2XHeight: 500
OS2Vendor: 'PfEd'
MarkAttachClasses: 1
DEI: 91125
LangName: 1033 "" "" "" "" "" "" "" "" "" "Brad Neil" "A font for the Quikscript alphabet, in a geometric style. The matching Latin glyphs were modelled after the classic 'Bauhaus' designs that were popular in the late 20th century." "" "https://friedorange.xyz/" "This Font Software is licensed under the SIL Open Font License, Version 1.1. This license is available with a FAQ at: https://scripts.sil.org/OFL" "https://scripts.sil.org/OFL"
Encoding: UnicodeFull
Compacted: 1
UnicodeInterp: none
NameList: AGL For New Fonts
DisplaySize: -48
AntiAlias: 1
FitToEm: 1
WinInfo: 0 16 8
BeginPrivate: 0
EndPrivate
Grid
-1000 828 m 0
 2000 828 l 1024
-1000 500.25 m 0
 2000 500.25 l 1024
EndSplineSet
BeginChars: 1114117 21

StartChar: a
Encoding: 97 97 0
Width: 619
Flags: HMW
LayerCount: 2
Back
SplineSet
34 250 m 0
 34 394 150 510 294 510 c 0
 438 510 554 394 554 250 c 0
 554 106 438 -10 294 -10 c 0
 150 -10 34 106 34 250 c 0
209 250 m 0
 209 297 247 335 294 335 c 0
 341 335 379 297 379 250 c 0
 379 203 341 165 294 165 c 0
 247 165 209 203 209 250 c 0
EndSplineSet
Fore
SplineSet
294 335 m 3
 245 335 214 294 214 250 c 0
 214 205 246 165 294 165 c 0
 342 165 374 201 374 246 c 1
 439 246 l 1
 439 102 380 -10 257 -10 c 3
 149 -10 39 100 39 249 c 0
 39 393 151 510 294 510 c 0
 424 510 549 410 549 248 c 2
 549 0 l 9
 404 0 l 1
 404 246 l 1
 374 246 l 1
 374 290 342 335 294 335 c 3
EndSplineSet
EndChar

StartChar: g
Encoding: 103 103 1
Width: 615
Flags: HMW
LayerCount: 2
Back
SplineSet
300 332 m 2
 260 332 220 300 220 252 c 3
 220 208 256 172 300 172 c 0
 344 172 380 208 380 252 c 0
 380 265 377 278 371 289 c 1
 551 289 l 1
 553 275 555 260 555 245 c 0
 555 104 426 35 300 35 c 0
 174 35 45 109 45 250 c 0
 45 384 159 500 300 500 c 2
 555 500 l 1
 555 332 l 1
 300 332 l 2
EndSplineSet
Fore
SplineSet
220 -83 m 0
 220 -127 256 -163 300 -163 c 0
 344 -163 380 -127 380 -83 c 0
 380 -39 344 -3 300 -3 c 0
 256 -3 220 -39 220 -83 c 0
45 -88 m 0
 45 53 174 127 300 127 c 0
 426 127 555 53 555 -88 c 0
 555 -222 441 -338 300 -338 c 0
 159 -338 45 -222 45 -88 c 0
220 252 m 3
 220 208 256 172 300 172 c 0
 344 172 380 208 380 252 c 0
 380 296 344 332 300 332 c 1
 300 390 l 1
 444 390 555 337 555 213 c 3
 555 124 432 35 301 35 c 0
 175 35 45 109 45 250 c 0
 45 384 161 500 302 500 c 2
 555 500 l 9
 555 355 l 1
 300 355 l 1
 300 332 l 1
 256 332 220 296 220 252 c 3
EndSplineSet
EndChar

StartChar: q
Encoding: 113 113 2
Width: 609
Flags: HMW
LayerCount: 2
Fore
SplineSet
294 335 m 3
 245 335 214 294 214 250 c 0
 214 205 246 165 294 165 c 0
 342 165 374 201 374 246 c 1
 439 246 l 1
 439 102 383 -10 260 -10 c 3
 150 -10 39 103 39 249 c 0
 39 393 151 510 294 510 c 0
 424 510 549 410 549 248 c 2
 549 -328 l 9
 374 -328 l 1
 374 246 l 1
 374 290 342 335 294 335 c 3
EndSplineSet
EndChar

StartChar: e
Encoding: 101 101 3
Width: 619
Flags: HMW
LayerCount: 2
Back
SplineSet
299 175 m 2
 559 175 l 1
 559 0 l 1
 299 0 l 2
 149 0 39 109 39 250 c 3
 39 391 148 510 299 510 c 0
 452 510 559 388 559 250 c 0
 559 239 558 229 557 218 c 1
 378 218 l 1
 382 228 384 239 384 250 c 0
 384 293 350 335 299 335 c 0
 248 335 214 293 214 255 c 0
 214 217 248 175 299 175 c 2
  Spiro
    299 175 [
    559 175 v
    559 0 v
    299 0 ]
    165.042 33.4174 o
    73.0085 122.63 o
    39 250 o
    72.7867 379.959 o
    164.597 473.994 o
    299 510 o
    434.292 473.329 o
    525.657 378.625 o
    559 250 o
    558.704 239.27 o
    557.962 228.73 o
    557 218 v
    378 218 v
    381.331 228.286 o
    383.335 239.048 o
    384 250 o
    373.317 291.11 o
    343.666 322.542 o
    299 335 o
    254.334 322.727 o
    224.683 292.594 o
    214 255 o
    224.683 217.406 o
    254.334 187.273 o
    0 0 z
  EndSpiro
-394 250 m 3
 -394 207 -360 165 -309 165 c 3
 -258 165 -224 207 -224 250 c 3
 -224 293 -258 335 -309 335 c 3
 -360 335 -394 293 -394 250 c 3
  Spiro
    -394 250 o
    -383.761 208.001 o
    -354.555 177.014 o
    -309 165 o
    -263.445 177.014 o
    -234.239 208.001 o
    -224 250 o
    -234.239 291.999 o
    -263.445 322.986 o
    -309 335 o
    -354.555 322.986 o
    -383.761 291.999 o
    0 0 z
  EndSpiro
-569 250 m 3
 -569 391.00390625 -460 510 -309 510 c 3
 -156 510 -49 388.006835938 -49 250 c 3
 -49 111 -156 -10 -309 -10 c 3
 -459 -10 -569 109 -569 250 c 3
  Spiro
    -569 250 o
    -535.879 381.736 o
    -444.736 474.882 o
    -309 510 o
    -171.486 474.882 o
    -81.233 381.736 o
    -49 250 o
    -81.233 118.264 o
    -171.486 25.118 o
    -309 -10 o
    -444.736 25.118 o
    -535.879 118.264 o
    0 0 z
  EndSpiro
EndSplineSet
Fore
SplineSet
214 255 m 3
 214 206 259 175 303 175 c 1
 303 145 l 1
 559 145 l 1
 559 0 l 17
 301 0 l 2
 139 0 39 119 39 250 c 0
 39 394 156 510 300 510 c 0
 449 510 559 396 559 287 c 3
 559 163 447 110 303 110 c 1
 303 175 l 1
 348 175 384 206 384 255 c 0
 384 304 344 335 299 335 c 0
 255 335 214 305 214 255 c 3
EndSplineSet
EndChar

StartChar: uni0261
Encoding: 609 609 4
Width: 609
Flags: HMW
LayerCount: 2
Back
SplineSet
-7 -60 m 0
 -7 93 118 218 271 218 c 0
 424 218 549 93 549 -60 c 0
 549 -213 424 -338 271 -338 c 0
 118 -338 -7 -213 -7 -60 c 0
EndSplineSet
Fore
SplineSet
374 -38 m 2
 371 246 l 1
 371 290 339 335 291 335 c 3
 242 335 211 294 211 250 c 0
 211 205 243 165 291 165 c 0
 339 165 371 201 371 246 c 1
 436 246 l 1
 436 102 380 -10 257 -10 c 7
 147 -10 36 103 36 249 c 0
 36 393 148 510 291 510 c 0
 421 510 544 410 546 248 c 2
 549 -62 l 2
 549 -217 420 -338 269 -338 c 3
 217 -338 156 -321 123 -296 c 1
 123 -121 l 1
 159 -149 200 -163 247 -163 c 3
 325 -163 374 -115 374 -38 c 2
EndSplineSet
EndChar

StartChar: bob
Encoding: 58961 58961 5
Width: 609
Flags: HMW
LayerCount: 2
Fore
SplineSet
294 7 m 0
 246 7 214 -33 214 -78 c 0
 214 -122 245 -163 294 -163 c 3
 342 -163 374 -118 374 -74 c 1
 374 500 l 1
 549 500 l 17
 549 -76 l 2
 549 -238 424 -338 294 -338 c 0
 151 -338 39 -221 39 -77 c 0
 39 69 150 182 260 182 c 7
 383 182 439 70 439 -74 c 1
 374 -74 l 1
 374 -29 342 7 294 7 c 0
EndSplineSet
EndChar

StartChar: zhivago
Encoding: 58973 58973 6
Width: 609
Flags: HMW
LayerCount: 2
Fore
SplineSet
294 7 m 0
 246 7 214 -33 214 -78 c 0
 214 -122 245 -163 294 -163 c 3
 342 -163 374 -118 374 -74 c 1
 374 210 l 2
 374 287 325 335 247 335 c 3
 200 335 159 321 123 293 c 1
 123 468 l 1
 156 493 217 510 269 510 c 3
 420 510 549 389 549 234 c 2
 549 -76 l 2
 549 -238 424 -338 294 -338 c 0
 151 -338 39 -221 39 -77 c 0
 39 69 150 182 260 182 c 7
 383 182 439 70 439 -74 c 1
 374 -74 l 1
 374 -29 342 7 294 7 c 0
EndSplineSet
EndChar

StartChar: loch
Encoding: 58985 58985 7
Width: 784
Flags: HMW
LayerCount: 2
Back
SplineSet
549 255 m 6
 549 298 520 335 469 335 c 4
 469 510 l 7
 619 510 724 396 724 255 c 6
 724 0 l 4
 549 0 l 4
 549 255 l 6
294 828 m 5
 469 828 l 5
 469 0 l 5
 294 0 l 5
 294 828 l 5
294 335 m 7
 243 335 214 298 214 255 c 7
 214 212 243 175 294 175 c 4
 294 0 l 7
 144 0 39 114 39 255 c 7
 39 396 143 510 294 510 c 4
 294 335 l 7
-322 165 m 1
 -320 165 -319 165 -317 165 c 0
 -251 165 -219 202 -219 245 c 0
 -219 288 -251 325 -317 325 c 0
 -365 325 l 1
 -365 500 l 1
 -304 500 l 0
 -154 500 -44 386 -44 245 c 0
 -44 104 -153 -10 -304 -10 c 0
 -310 -10 -313 -10 -322 -9 c 1
 -322 165 l 1
-540 828 m 1
 -365 828 l 1
 -365 0 l 1
 -540 0 l 1
 -540 828 l 1
-588 175 m 0
 -540 175 l 1
 -540 0 l 1
 -601 0 l 3
 -751 0 -861 109 -861 250 c 3
 -861 391 -752 500 -601 500 c 0
 -540 500 l 1
 -540 325 l 1
 -588 325 l 3
 -654 325 -686 293 -686 250 c 3
 -686 207 -654 175 -588 175 c 0
EndSplineSet
Fore
SplineSet
469 175 m 1
 520 175 549 212 549 255 c 0
 549 298 520 335 469 335 c 1
 469 510 l 1
 619 510 724 396 724 255 c 0
 724 114 620 0 469 0 c 1
 469 175 l 1
294 335 m 1
 243 335 214 298 214 255 c 0
 214 212 243 175 294 175 c 1
 294 0 l 1
 144 0 39 114 39 255 c 0
 39 396 143 510 294 510 c 1
 294 335 l 1
294 828 m 1
 469 828 l 1
 469 0 l 1
 294 0 l 1
 294 828 l 1
EndSplineSet
EndChar

StartChar: gig
Encoding: 58965 58965 8
Width: 600
Flags: HMW
LayerCount: 2
Back
SplineSet
39 234 m 17
 39 389 167.986328125 510 319 510 c 3
 371 510 432 493 465 468 c 1
 465 293 l 1
 429 321 388.010742188 335 341 335 c 3
 263.446289062 335 214 287 214 210 c 9
 39 234 l 17
302 510 m 17
 444 510 560 390 560 256 c 9
 385 258 l 17
 385 306 342 342 302 342 c 9
 302 510 l 17
223 -83 m 0
 223 -127 259 -163 303 -163 c 0
 347 -163 383 -127 383 -83 c 0
 383 -39 347 -3 303 -3 c 0
 259 -3 223 -39 223 -83 c 0
48 -88 m 0
 48 53 177 127 303 127 c 0
 429 127 558 53 558 -88 c 0
 558 -222 444 -338 303 -338 c 0
 162 -338 48 -222 48 -88 c 0
EndSplineSet
Fore
SplineSet
303 -3 m 0
 259 -3 220 -39 220 -83 c 0
 220 -127 259 -163 303 -163 c 0
 347 -163 386 -127 386 -83 c 0
 386 -39 347 -3 303 -3 c 0
303 127 m 0
 303 41 l 0
 177 41 55 125 55 256 c 0
 55 390 171 510 323 510 c 3
 396 510 446 487 475 465 c 1
 475 297 l 1
 431 327 385 342 333 342 c 3
 270 342 230 306 230 258 c 3
 230 206 267.03080794 175.275735152 313 170 c 0
 459.810867111 153.150992705 561 46 561 -88 c 0
 561 -222 444 -338 303 -338 c 0
 162 -338 45 -222 45 -88 c 0
 45 43 177 127 303 127 c 0
EndSplineSet
EndChar

StartChar: age.alt
Encoding: 1114113 -1 9
Width: 435
Flags: HMW
LayerCount: 2
Back
SplineSet
320 -10 m 0
 176 -10 60 102 60 250 c 2
 60 346 l 2
 60 427 127 510 242 510 c 0
 323 510 390 446 390 347 c 3
 390 272 336 223 267 223 c 3
 264 223 259 224 257 225 c 1
 256 299 l 1
 260 298 262 298 264 298 c 3
 286 298 315 314 315 349 c 3
 315 380 291 400 264 400 c 3
 233 400 213 376 213 348 c 2
 213 270 l 2
 213 202 270 165 326 165 c 0
 350 165 365 167 381 172 c 1
 381 -3 l 1
 365 -7 344 -10 320 -10 c 0
EndSplineSet
Fore
SplineSet
320 -10 m 0
 176 -10 60 102 60 250 c 2
 60 346 l 2
 60 427 127 510 242 510 c 0
 323 510 390 446 390 347 c 3
 390 272 331 223 282 223 c 3
 213 223 183 273 183 348 c 1
 213 348 l 1
 213 313 242 298 264 298 c 3
 286 298 315 314 315 349 c 3
 315 380 291 400 264 400 c 3
 233 400 213 376 213 348 c 2
 213 260 l 2
 213 192 270 165 326 165 c 0
 350 165 365 167 381 172 c 1
 381 -3 l 1
 365 -7 344 -10 320 -10 c 0
EndSplineSet
EndChar

StartChar: oil.alt
Encoding: 1114115 -1 10
Width: 429
Flags: HMW
LayerCount: 2
Fore
SplineSet
165 301 m 3
 187 301 216 316 216 351 c 1
 246 351 l 1
 246 276 216 226 147 226 c 3
 98 226 39 275 39 350 c 3
 39 449 106 510 187 510 c 0
 302 510 369 427 369 346 c 2
 369 0 l 1
 216 0 l 9
 216 349 l 2
 216 377 196 403 165 403 c 3
 138 403 114 383 114 352 c 3
 114 317 143 301 165 301 c 3
EndSplineSet
EndChar

StartChar: age
Encoding: 58995 58995 11
Width: 640
Flags: HMW
LayerCount: 2
Back
SplineSet
320 175 m 2
 580 175 l 1
 580 0 l 1
 320 0 l 2
 170 0 60 109 60 250 c 2
 60 500 l 1
 235 500 l 1
 235 255 l 2
 235 217 269 175 320 175 c 2
278 506.836914062 m 1
 291.579101562 508.91796875 305.598632812 510 320 510 c 0
 473 510 580 388 580 250 c 0
 580 239 579 229 578 218 c 1
 399 218 l 1
 403 228 405 239 405 250 c 0
 405 293 371 335 320 335 c 0
 304.200195312 335 290.03125 330.96875 278 324.274414062 c 1
 278 506.836914062 l 1
EndSplineSet
Fore
SplineSet
405 255 m 0
 405 300 367 335 320 335 c 0
 273 335 235 300 235 255 c 1
 170 255 l 1
 170 399 232 510 357 510 c 3
 480 510 580 413 580 289 c 3
 580 169 464 110 320 110 c 1
 320 175 l 1
 367 175 405 210 405 255 c 0
320 175 m 0
 320 145 l 1
 580 145 l 1
 580 0 l 1
 320 0 l 2
 188 0 60 97 60 259 c 2
 60 500 l 9
 205 500 l 1
 205 255 l 1
 235 255 l 1
 235 210 273 175 320 175 c 0
EndSplineSet
EndChar

StartChar: out
Encoding: 59003 59003 12
Width: 630
Flags: HMW
LayerCount: 2
Back
SplineSet
560 325 m 5
 310 325 l 6
 272 325 235 304 235 246 c 6
 235 0 l 5
 60 0 l 5
 60 248 l 6
 60 405 179 500 310 500 c 6
 560 500 l 5
 560 325 l 5
567.922851562 282 m 5
 569.293945312 271.247070312 570 260.236328125 570 249 c 4
 570 105 454 -10 310 -10 c 4
 297.517578125 -10 285.505859375 -9.0341796875 278 -8.1669921875 c 5
 278 170.997070312 l 5
 289.87890625 166.654296875 297.98046875 165 310 165 c 4
 359 165 395 205 395 250 c 4
 395 261.698242188 392.526367188 272.477539062 387.954101562 282 c 5
 567.922851562 282 l 5
EndSplineSet
Fore
SplineSet
570 208 m 3
 570 85 473 -10 349 -10 c 3
 229 -10 170 101 170 245 c 1
 235 245 l 1
 235 198 270 165 315 165 c 0
 360 165 395 198 395 245 c 0
 395 292 360 325 315 325 c 1
 315 390 l 1
 459 390 570 333 570 208 c 3
560 355 m 1
 315 355 l 1
 315 325 l 1
 270 325 235 292 235 245 c 0
 205 245 l 1
 205 0 l 1
 60 0 l 1
 60 245 l 2
 60 377 157 500 319 500 c 2
 560 500 l 9
 560 355 l 1
EndSplineSet
EndChar

StartChar: Q
Encoding: 81 81 13
Width: 947
Flags: HMW
LayerCount: 2
Fore
SplineSet
463 0 m 2
 229 0 39 185 39 414 c 0
 39 648 229 838 463 838 c 0
 697 838 887 653 887 424 c 0
 887 205 687 80 463 80 c 1
 463 181 l 1
 603 181 706 277 706 414 c 0
 706 556 603 657 463 657 c 0
 323 657 220 556 220 414 c 0
 220 277 323 181 463 181 c 2
 887 181 l 1
 887 0 l 1
 463 0 l 2
EndSplineSet
EndChar

StartChar: D
Encoding: 68 68 14
Width: 713
Flags: HMW
LayerCount: 2
Fore
SplineSet
250 181 m 2
 390 181 493 277 493 414 c 0
 493 551 390 647 250 647 c 2
 241 647 l 1
 241 181 l 1
 250 181 l 2
60 0 m 1
 60 828 l 1
 250 828 l 2
 484 828 674 643 674 414 c 0
 674 185 484 0 250 0 c 2
 60 0 l 1
EndSplineSet
EndChar

StartChar: A
Encoding: 65 65 15
Width: 672
Flags: HMW
LayerCount: 2
Fore
SplineSet
224 436 m 5
 447 436 l 1
 447 255 l 1
 224 255 l 5
 224 436 l 5
612 0 m 1
 431 0 l 1
 431 646 l 1
 336 647 l 2
 284 647 241 604 241 552 c 2
 241 0 l 1
 60 0 l 1
 60 551 l 2
 60 703 184 827 336 827 c 2
 602 827 l 0
 612 0 l 1
EndSplineSet
EndChar

StartChar: P
Encoding: 80 80 16
Width: 661
Flags: HMW
LayerCount: 2
Back
SplineSet
400 580 m 0
 400 624 364 660 320 660 c 0
 276 660 240 624 240 580 c 0
 240 536 276 500 320 500 c 0
 364 500 400 536 400 580 c 0
575 585 m 0
 575 444 446 370 320 370 c 0
 194 370 65 444 65 585 c 0
 65 719 179 838 320 838 c 0
 461 838 575 719 575 585 c 0
240 245 m 0
 240 201 276 165 320 165 c 0
 364 165 400 201 400 245 c 0
 400 289 364 325 320 325 c 0
 276 325 240 289 240 245 c 0
65 240 m 0
 65 381 194 455 320 455 c 0
 446 455 575 381 575 240 c 0
 575 106 461 -10 320 -10 c 0
 179 -10 65 106 65 240 c 0
EndSplineSet
Fore
SplineSet
341 654 m 0
 286 654 241 609 241 554 c 2
 241 0 l 1
 60 0 l 17
 60 554 l 2
 60 709 186 835 341 835 c 0
 496 835 622 709 622 554 c 0
 622 399 531 273 376 273 c 0
 221 273 170 399 170 554 c 1
 241 554 l 1
 241 499 286 454 341 454 c 0
 396 454 441 499 441 554 c 0
 441 609 396 654 341 654 c 0
EndSplineSet
EndChar

StartChar: R
Encoding: 82 82 17
Width: 672
Flags: HMW
LayerCount: 2
Back
SplineSet
159 390 m 5
 295 390 l 6
 425 390 530 290 530 160 c 6
 530 0 l 29
 503 0 l 29
 503 160 l 6
 503 275 410 368 295 368 c 6
 159 368 l 5
 159 390 l 5
159 374 m 5
 159 395 l 5
 305 395 l 6
 420 395 513 487.982421875 513 603 c 7
 513 718.040039062 420.004882812 811 305 811 c 7
 189.995117188 811 97 718 97 603 c 6
 97 0 l 5
 70 0 l 5
 70 604 l 6
 70 734 175 838 305 838 c 7
 435.00390625 838 540 733 540 603 c 7
 540 473 435 374 305 374 c 6
 159 374 l 5
295 663 m 3
 257 663 220 637 220 574 c 2
 220 0 l 9
 45 0 l 17
 45 576 l 2
 45 738 164 838 295 838 c 0
 439 838 555 721 555 577 c 0
 555 433 439 318 295 318 c 0
 282.517578125 318 270.505859375 318.965820312 263 319.833007812 c 1
 263 498.997070312 l 1
 274.87890625 494.654296875 282.98046875 493 295 493 c 0
 344 493 380 533 380 578 c 0
 380 622 345 663 295 663 c 3
EndSplineSet
Fore
SplineSet
234 394 m 25
 331 394 l 2
 486 394 612 328 612 173 c 2
 612 0 l 1
 431 0 l 1
 431 173 l 2
 431 228 386 273 331 273 c 2
 234 273 l 25
 234 394 l 25
234 333 m 1
 234 454 l 1
 341 454 l 2
 396 454 441 499 441 554 c 0
 441 609 396 654 341 654 c 0
 286 654 241 609 241 554 c 2
 241 0 l 1
 60 0 l 17
 60 554 l 2
 60 709 186 835 341 835 c 0
 496 835 622 709 622 554 c 0
 622 399 496 333 341 333 c 2
 234 333 l 1
EndSplineSet
EndChar

StartChar: B
Encoding: 66 66 18
Width: 613
Flags: HMW
LayerCount: 2
Fore
SplineSet
317 454 m 0
 439 454 574 359 574 227 c 0
 574 95 459 0 317 0 c 0
 233 0 l 1
 233 181 l 1
 317 181 l 0
 360 181 394 204 394 247 c 0
 394 290 360 324 317 324 c 0
 233 324 l 25
 233 454 l 25
 317 454 l 0
233 504 m 1
 317 504 l 2
 360 504 394 538 394 581 c 0
 394 624 360 658 317 658 c 0
 274 658 240 624 240 581 c 2
 240 0 l 1
 60 0 l 1
 60 581 l 2
 60 723 175 838 317 838 c 0
 459 838 574 733 574 601 c 0
 574 469 439 374 317 374 c 2
 233 374 l 1
 233 504 l 1
EndSplineSet
EndChar

StartChar: ampersand
Encoding: 38 38 19
Width: 856
Flags: HMW
LayerCount: 2
Fore
SplineSet
735 -10 m 3
 591 -10 525 112 525 250 c 9
 475 250 l 1
 475 679 l 1
 650 679 l 1
 650 500 l 1
 791 500 l 1
 791 332 l 1
 650 332 l 1
 650 270 l 2
 650 198 702 165 750 165 c 3
 764 165 780 167 796 172 c 1
 796 -3 l 1
 780 -7 759 -10 735 -10 c 3
307 -10 m 3
 161 -10 45 106 45 240 c 3
 45 381 177 459 303 459 c 2
 545 458 l 1
 545 332 l 1
 353 332 l 2
 239 332 220 289 220 245 c 3
 220 190 282 165 341 165 c 3
 400 165 475 195 475 250 c 1
 600 250 l 1
 600 100 473 -10 307 -10 c 3
432 807 m 1
 432 632 l 1
 400 650 375 663 331 663 c 3
 272 663 226 639 226 584 c 3
 226 540 239 500 353 500 c 2
 545 500 l 1
 545 376 l 1
 303 376 l 2
 177 376 51 448 51 589 c 3
 51 723 161 838 307 838 c 3
 354 838 393 827 432 807 c 1
EndSplineSet
EndChar

StartChar: at
Encoding: 64 64 20
Width: 1204
Flags: HMW
LayerCount: 2
Back
SplineSet
890 250 m 0
 890 291 924 325 965 325 c 0
 1006 325 1040 291 1040 250 c 0
 1040 209 1006 175 965 175 c 0
 924 175 890 209 890 250 c 0
214 250 m 0
 214 22 392 -163 627 -163 c 0
 848 -163 1040 22 1040 250 c 0
 1040 478 855 663 627 663 c 0
 399 663 214 478 214 250 c 0
39 250 m 0
 39 575 302 838 627 838 c 0
 952 838 1215 575 1215 250 c 0
 1215 -75 952 -338 627 -338 c 0
 302 -338 39 -75 39 250 c 0
EndSplineSet
Fore
SplineSet
580 -10 m 3
 472 -10 362 100 362 249 c 0
 362 393 474 510 617 510 c 0
 747 510 872 410 872 248 c 2
 872 165 l 17
 882 165 l 2
 945 165 980 229 980 310 c 3
 980 448.422851562 875 663 627 663 c 3
 399 663 214 478 214 250 c 0
 214 22 392 -163 627 -163 c 3
 674.010637094 -163 740 -153 797 -125 c 1
 797 -313 l 1
 745 -330 678 -338 627 -338 c 3
 302 -338 39 -75 39 250 c 0
 39 575 302 838 627 838 c 3
 962 838 1155 545.232421875 1155 310 c 3
 1155 123 1039 -2.41247451703e-14 842 0 c 2
 727 0 l 1
 727 246 l 1
 697 246 l 1
 697 290 665 335 617 335 c 3
 568 335 537 294 537 250 c 0
 537 205 569 165 617 165 c 0
 665 165 697 201 697 246 c 1
 762 246 l 1
 762 102 703 -10 580 -10 c 3
EndSplineSet
EndChar
